<svg preserveAspectRatio="xMidYMid meet" data-bbox="22.383 22.383 154.617 154.617" xmlns="http://www.w3.org/2000/svg" width="200" height="200" viewBox="22.383 22.383 154.617 154.617" data-type="color" role="presentation" aria-hidden="true"><defs><style>#comp-jy5rl0m1 svg [data-color="1"] {fill: #EEFF42;}
#comp-jy5rl0m1 svg [data-color="2"] {fill: #BEE1E6;}
#comp-jy5rl0m1 svg [data-color="3"] {fill: #18293D;}</style></defs>
    <g>
        <path fill="#eeff43" d="M100.591 105.046l.965-.37v-.319a9.439 9.439 0 0 0-.965.689z" data-color="1"></path>
        <path fill="#eeff43" d="M173.625 77.061l-72.069 27.615v21.913l-60.678 23.25c-.128-.15-.26-.295-.386-.446C54.672 166.268 75.925 177 99.692 177c41.362 0 75.137-32.483 77.207-73.331.067-1.318.101-2.644.101-3.978a77.226 77.226 0 0 0-3.375-22.63z" data-color="1"></path>
        <path fill="#eeff43" d="M169.251 65.922l-.003.001c.014.03.031.058.045.088l-.042-.089z" data-color="1"></path>
        <path fill="#eeff43" d="M34.322 140.973c.284.449.579.89.872 1.332-.292-.441-.574-.89-.857-1.338l-.015.006z" data-color="1"></path>
        <path fill="#bee1e6" d="M30.132 133.461l.003-.001c-.012-.026-.026-.05-.039-.076l.036.077z" data-color="2"></path>
        <path fill="#bee1e6" d="M100.591 105.046a9.6 9.6 0 0 1 .965-.689V82.762l60.687-23.254c.104-.042.206-.087.311-.129.832-.333 1.668-.656 2.508-.969-13.701-21.65-37.855-36.027-65.371-36.027-42.696 0-77.308 34.612-77.308 77.309 0 11.839 2.669 23.052 7.426 33.082-.081-.171-.154-.345-.234-.517l71.016-27.211z" data-color="2"></path>
        <path fill="#112042" d="M101.556 104.357v.319l72.069-27.615h.001a76.623 76.623 0 0 0-1.217-3.656c-.087-.24-.177-.478-.266-.716a76.652 76.652 0 0 0-1.162-2.946c-.073-.173-.151-.343-.224-.515a75.332 75.332 0 0 0-1.199-2.652c-.089-.187-.174-.377-.264-.563-.014-.03-.031-.058-.045-.088a77.39 77.39 0 0 0-4.192-7.493l-2.812 1.078-60.687 23.254v21.593z" data-color="3"></path>
        <path fill="#112042" d="M101.556 126.589v-21.913l-.965.37-71.015 27.211c.08.171.153.346.234.517.096.203.188.408.286.61.012.026.026.05.039.076a77.055 77.055 0 0 0 4.202 7.508c.283.448.565.896.857 1.338.24.362.48.723.725 1.08a76.02 76.02 0 0 0 2.19 3.03 77.918 77.918 0 0 0 1.69 2.151c.228.279.461.552.692.827.127.151.259.296.386.446l60.679-23.251z" data-color="3"></path>
    </g>
</svg>