<svg preserveAspectRatio="xMidYMid meet" data-bbox="20 20 160 160" viewBox="20 20 160 160" height="200" width="200" xmlns="http://www.w3.org/2000/svg" data-type="shape" role="img" aria-labelledby="svgcid--evr1r8svk0w"><title id="svgcid--evr1r8svk0w">Homepage</title>
    <g>
        <path d="M179.981 98.552a80.054 80.054 0 0 0-25.98-57.564l.015-.015-1.157-1.02-1.02-.899-.013.013c-7.93-6.746-17.223-11.948-27.08-15.159l.033-.033-2.348-.684-.823-.24-.013.013A80.184 80.184 0 0 0 100 20c-19.057 0-37.311 6.731-51.765 19.014v-.094l-2.429 2.238-.467.43v.012c-15.756 14.757-24.926 35.405-25.32 56.952H20v2.896h.026a80.072 80.072 0 0 0 2.939 20.145l-.013.013.24.823.684 2.348.033-.033c3.211 9.857 8.414 19.15 15.159 27.08l-.013.013.899 1.02 1.02 1.157.014-.014c15.147 16.54 36.563 26 59.012 26 43.628 0 79.206-35.106 79.982-78.552H180v-2.896h-.019zm-28.026-55.517a77.168 77.168 0 0 1 25.136 55.518H96.437l55.518-55.518zm-29.517-16.819c9.948 3.025 19.353 8.154 27.337 14.902l-23.894 23.894-33.539 33.54h-42.24l72.336-72.336zM100 22.896c6.513 0 12.973.814 19.239 2.424L96.8 47.76 48.235 96.324V42.861C62.443 29.981 80.8 22.896 100 22.896zM45.339 45.627v52.925h-22.43c.377-19.83 8.468-38.872 22.43-52.925zM25.32 119.239a77.209 77.209 0 0 1-2.41-17.791h20.201l-9.788 9.788-8.003 8.003zm15.798 30.535c-6.748-7.984-11.877-17.388-14.902-27.337l19.123-19.123 1.867-1.867h42.24l-28.222 28.221-20.106 20.106zM100 177.104c-21.679 0-42.362-9.149-56.965-25.149l49.364-49.364v73.971h2.896v-75.113h81.797c-.774 41.851-35.059 75.655-77.092 75.655z"></path>
        <path d="M129.683 158.462c14.571 0 26.425-11.854 26.425-26.425s-11.854-26.425-26.425-26.425-26.425 11.854-26.425 26.425 11.854 26.425 26.425 26.425zm0-49.955c12.974 0 23.529 10.555 23.529 23.529s-10.555 23.529-23.529 23.529-23.529-10.555-23.529-23.529 10.555-23.529 23.529-23.529z"></path>
    </g>
</svg>